<?xml version="1.0" encoding="iso-8859-1"?>
<!-- Generator: Adobe Illustrator 19.0.0, SVG Export Plug-In . SVG Version: 6.00 Build 0)  -->
<svg version="1.1" id="Capa_1" xmlns="http://www.w3.org/2000/svg" xmlns:xlink="http://www.w3.org/1999/xlink" x="0px" y="0px"
	 viewBox="0 0 512.027 512.027" style="enable-background:new 0 0 512.027 512.027;" xml:space="preserve">
<path style="fill:#43A047;" d="M508.709,232.851c4.267-4.062,4.433-10.814,0.371-15.08c-1.953-2.052-4.643-3.242-7.475-3.309
	c-21.589-0.512-21.589-30.955-21.589-32.213c0.046-3.935-2.077-7.576-5.525-9.472L371.386,116.03
	c-3.813-2.11-8.526-1.687-11.904,1.067l-82.645,67.392c-4.11,3.364-5.12,9.239-2.368,13.781l25.771,42.667
	c0.482,0.783,1.063,1.5,1.728,2.133c12.109,13.958,18.294,32.09,17.237,50.539c0.05,29.076-11.725,56.922-32.619,77.141
	c-4.266,4.062-4.432,10.814-0.37,15.08c1.433,1.505,3.274,2.559,5.298,3.032c15.201,6.461,27.395,18.434,34.133,33.515
	c14.051,22.273,19.567,48.878,15.531,74.901c-1.866,5.588,1.151,11.63,6.738,13.496c4.881,1.63,10.231-0.457,12.718-4.963
	c17.237-30.805,45.419-56.811,64.192-59.157c3.866-0.868,7.906,0.336,10.667,3.179c4.062,4.267,10.814,4.433,15.08,0.371
	c2.052-1.953,3.242-4.643,3.309-7.475c0-2.133,0-4.416,0-6.997c-2.583-28.224,8.183-56.032,29.099-75.157
	c4.271-4.057,4.444-10.809,0.387-15.08c-0.001-0.001-0.002-0.002-0.003-0.003c-9.698-15.237-12.136-33.99-6.656-51.2
	C481.129,271.119,492.256,249.756,508.709,232.851z"/>
<path style="fill:#4CAF50;" d="M337.637,152.68c-3.649-3.038-8.866-3.299-12.8-0.64l-30.997-46.528
	c0.491-0.448,1.259-0.747,1.728-1.195c4.237-4.092,4.355-10.845,0.262-15.083s-10.845-4.355-15.083-0.262
	c-0.089,0.086-0.176,0.173-0.262,0.262c-16.939,16.939-100.907,11.328-113.067-0.213c-4.234-4.096-10.987-3.984-15.083,0.249
	c-2.057,2.126-3.138,5.01-2.986,7.964c-1.579,24.527-12.225,47.591-29.867,64.704c-16.885,18.909-40.794,30.054-66.133,30.827
	c-5.891,0.003-10.664,4.781-10.662,10.672c0.001,2.075,0.607,4.105,1.744,5.84c6.543,15.171,7.115,32.255,1.6,47.829
	c-5.193,25.812-19.544,48.876-40.405,64.939c-5.191,2.785-7.142,9.251-4.357,14.442c2.417,4.505,7.689,6.661,12.57,5.142
	c33.749-10.432,72.064-9.792,87.296,1.451c3.409,2.043,5.51,5.711,5.547,9.685c-0.034,4.348,2.574,8.281,6.592,9.941
	c1.291,0.538,2.676,0.813,4.075,0.811c2.831,0.005,5.548-1.115,7.552-3.115c1.451-1.451,3.072-3.179,4.843-5.077
	c17.553-22.314,44.553-35.107,72.939-34.56c5.891,0,10.667-4.776,10.667-10.667c0-26.432,49.643-64,96-64
	c5.891,0.011,10.675-4.757,10.686-10.648c0.005-2.84-1.123-5.565-3.134-7.571c-12.117-12.117,9.493-45.781,21.867-60.16
	C342.607,163.255,342.101,156.522,337.637,152.68z"/>
<g>
	<path style="fill:#388E3C;" d="M138.682,256.766c-5.891-0.011-10.657-4.796-10.646-10.687c0.006-3.111,1.37-6.064,3.734-8.086
		c4.267-3.605,104.064-88.427,152.171-108.416c5.467-2.25,11.723,0.357,13.973,5.824c2.25,5.467-0.357,11.723-5.824,13.973l0,0
		c-45.013,18.688-145.472,104.064-146.496,104.917C143.656,255.908,141.206,256.785,138.682,256.766z"/>
	<path style="fill:#388E3C;" d="M385.104,361.235c-5.462,0.033-10.066-4.065-10.667-9.493
		c-0.448-4.267-11.115-103.893,10.411-152.619c1.99-5.545,8.098-8.426,13.643-6.436c5.545,1.99,8.426,8.098,6.436,13.643
		c-0.163,0.455-0.357,0.898-0.58,1.326c-19.2,43.477-8.811,140.672-8.704,141.653c0.648,5.855-3.573,11.128-9.428,11.776
		c0,0-0.001,0-0.001,0L385.104,361.235z"/>
</g>
<path style="fill:#E53935;" d="M448.016,0.766c-28.977,0.092-54.276,19.642-61.675,47.659c-1.091,4.114,0.368,8.482,3.712,11.115
	l76.651,60.288c1.885,1.483,4.215,2.287,6.613,2.283c1.774-0.005,3.52-0.452,5.077-1.301c31.046-16.699,42.676-55.404,25.977-86.45
	C493.219,13.625,471.559,0.713,448.016,0.766z"/>
<circle style="fill:#D32F2F;" cx="352.016" cy="96.766" r="74.667"/>
<circle style="fill:#F44336;" cx="416.016" cy="139.432" r="74.667"/>
<path d="M473.338,122.11c-5.891-0.004-10.664-4.783-10.66-10.674c0.003-3.902,2.135-7.491,5.561-9.358
	c20.685-11.115,28.442-36.893,17.328-57.578c-11.115-20.685-36.893-28.442-57.578-17.328c-10.421,5.599-18.037,15.287-21.019,26.735
	c-1.508,5.697-7.349,9.092-13.045,7.584c-5.697-1.508-9.092-7.349-7.584-13.045c8.916-34.13,43.812-54.57,77.942-45.654
	s54.57,43.812,45.654,77.942c-4.483,17.163-15.902,31.688-31.522,40.096C476.856,121.672,475.111,122.112,473.338,122.11z"/>
<path d="M416.016,214.099c-31.706-0.115-59.882-20.242-70.272-50.197c-2.077-5.513,0.708-11.665,6.221-13.742
	c5.513-2.077,11.665,0.708,13.742,6.221c0.063,0.166,0.121,0.334,0.175,0.503c9.697,27.751,40.054,42.387,67.805,32.69
	c27.751-9.697,42.387-40.054,32.69-67.805c-7.478-21.401-27.691-35.718-50.362-35.669c-0.299,0-2.901,0.363-3.2,0.363
	c-5.849,0.245-10.832-4.208-11.243-10.048c-0.327-5.878,4.17-10.91,10.048-11.243c1.461-0.239,2.936-0.374,4.416-0.405
	c41.237,0,74.667,33.429,74.667,74.667s-33.429,74.667-74.667,74.667H416.016z"/>
<path d="M352.016,171.432c-41.237,0-74.667-33.429-74.667-74.667s33.429-74.667,74.667-74.667s74.667,33.429,74.667,74.667
	S393.253,171.432,352.016,171.432z M352.016,43.432c-29.455,0-53.333,23.878-53.333,53.333s23.878,53.333,53.333,53.333
	c29.455,0,53.333-23.878,53.333-53.333S381.471,43.432,352.016,43.432L352.016,43.432L352.016,43.432z"/>
<path d="M117.349,363.432c-1.393,0.027-2.777-0.22-4.075-0.725c-4.018-1.661-6.626-5.594-6.592-9.941
	c-0.033-3.98-2.145-7.654-5.568-9.685c-15.232-11.264-53.589-11.883-87.296-1.451c-5.633,1.724-11.597-1.446-13.321-7.079
	c-1.486-4.858,0.659-10.09,5.129-12.505c20.864-16.064,35.221-39.126,40.427-64.939c5.515-15.569,4.936-32.648-1.621-47.808
	c-3.24-4.92-1.878-11.535,3.042-14.775c1.744-1.149,3.787-1.76,5.876-1.758c25.342-0.78,49.251-11.933,66.133-30.848
	c17.649-17.09,28.297-40.144,29.867-64.661c-0.267-5.885,4.287-10.872,10.172-11.14c2.89-0.131,5.71,0.917,7.812,2.905
	c12.245,11.563,96.171,17.067,113.067,0.213c4.093-4.237,10.845-4.355,15.083-0.262c4.237,4.093,4.355,10.845,0.262,15.083
	c-0.086,0.089-0.173,0.176-0.262,0.262c-21.781,21.803-91.413,20.48-126.208,8.875c-5.326,23.946-17.237,45.928-34.389,63.467
	c-17.452,19.038-40.698,31.786-66.133,36.267c3.143,16.425,2.412,33.357-2.133,49.451c-4.672,18.321-12.427,35.714-22.933,51.435
	c24.033-4.169,48.769,0.12,69.995,12.139c2.831,2.053,5.365,4.486,7.531,7.232c18.89-19.87,44.63-31.814,72-33.408
	c8.085-35.307,55.893-66.88,99.499-73.664c-5.952-29.483,25.6-67.307,29.867-72.32c3.847-4.465,10.585-4.967,15.051-1.12
	c4.465,3.847,4.967,10.585,1.12,15.051c-12.373,14.4-34.005,48.043-21.867,60.16c4.171,4.16,4.179,10.914,0.019,15.085
	c-2.006,2.011-4.731,3.139-7.571,3.134c-46.357,0-96,37.568-96,64c0,5.891-4.776,10.667-10.667,10.667
	c-28.372-0.569-55.374,12.181-72.96,34.453c-1.771,1.92-3.371,3.627-4.821,5.077C122.884,362.298,120.175,363.426,117.349,363.432z"
	/>
<path d="M138.682,256.766c-5.891-0.011-10.657-4.796-10.646-10.687c0.006-3.111,1.37-6.064,3.734-8.086
	c4.267-3.605,104.043-88.427,152.149-108.416c5.467-2.262,11.732,0.336,13.995,5.803c2.262,5.467-0.336,11.733-5.803,13.995l0,0
	c-45.035,18.688-145.493,104.064-146.517,104.917C143.656,255.908,141.206,256.785,138.682,256.766z"/>
<path d="M351.29,511.315c-5.891-0.004-10.663-4.783-10.659-10.674c0.001-1.12,0.178-2.234,0.525-3.299
	c4.017-26.023-1.498-52.621-15.531-74.901c-6.734-15.083-18.93-27.057-34.133-33.515c-5.739-1.331-9.312-7.061-7.982-12.8
	c0.473-2.039,1.535-3.894,3.054-5.333c20.891-20.213,32.665-48.051,32.619-77.12c1.058-18.445-5.118-36.575-17.216-50.539
	c-4.101-4.23-3.996-10.982,0.233-15.083c4.016-3.893,10.357-4.024,14.529-0.298c16.436,17.919,25.003,41.678,23.787,65.963
	c-0.042,29.503-10.166,58.106-28.693,81.067c13.525,9.709,24.623,22.413,32.427,37.12c9.245,16.488,15.615,34.43,18.837,53.056
	c14.511-19.624,35.394-33.591,59.072-39.509c3.461-0.48,6.971-0.48,10.432,0c-0.022-27.382,10.356-53.75,29.035-73.771
	c-18.304-30.848-5.888-85.888,20.459-120.939c-15.717-11.193-24.58-29.676-23.467-48.939c0.105-5.816,4.85-10.476,10.667-10.475
	h0.128c5.883,0.07,10.598,4.89,10.539,10.773c0,1.301,0,31.701,21.589,32.235c5.889,0.138,10.551,5.025,10.413,10.914
	c-0.067,2.832-1.257,5.522-3.309,7.475c-33.557,32-43.605,93.419-25.365,112.555c4.059,4.27,3.888,11.021-0.381,15.08
	c-0.001,0.001-0.002,0.002-0.003,0.003c-20.943,19.15-31.698,47.009-29.056,75.264c0,2.581,0,4.928,0,7.019
	c-0.15,5.889-5.046,10.542-10.935,10.392c-2.825-0.072-5.506-1.262-7.455-3.309c-2.767-2.832-6.801-4.034-10.667-3.179
	c-18.773,2.347-46.933,28.352-64.192,59.157C358.747,509.131,355.182,511.282,351.29,511.315z"/>
<path d="M385.125,361.235c-5.462,0.033-10.066-4.065-10.667-9.493c-0.448-4.267-11.136-103.893,10.389-152.597
	c2.072-5.515,8.222-8.305,13.737-6.233c5.515,2.072,8.305,8.222,6.233,13.737c-0.132,0.351-0.282,0.694-0.45,1.029
	c-19.2,43.477-8.811,140.672-8.704,141.653c0.648,5.855-3.573,11.128-9.428,11.776c0,0-0.001,0-0.001,0L385.125,361.235z"/>
<g>
</g>
<g>
</g>
<g>
</g>
<g>
</g>
<g>
</g>
<g>
</g>
<g>
</g>
<g>
</g>
<g>
</g>
<g>
</g>
<g>
</g>
<g>
</g>
<g>
</g>
<g>
</g>
<g>
</g>
</svg>
